<svg width="25" height="25" viewBox="0 0 25 25" fill="none" xmlns="http://www.w3.org/2000/svg">
<path d="M2.8175 22.275L4.5925 16.25C4.27584 15.5833 4.03017 14.896 3.8555 14.188C3.68017 13.4793 3.5925 12.75 3.5925 12C3.5925 10.6833 3.8425 9.44567 4.3425 8.287C4.8425 7.129 5.51751 6.125 6.36751 5.275C7.2175 4.425 8.22184 3.75 9.38051 3.25C10.5385 2.75 11.7758 2.5 13.0925 2.5C14.4092 2.5 15.6468 2.75 16.8055 3.25C17.9635 3.75 18.9675 4.425 19.8175 5.275C20.6675 6.125 21.3425 7.129 21.8425 8.287C22.3425 9.44567 22.5925 10.6833 22.5925 12C22.5925 13.3167 22.3425 14.554 21.8425 15.712C21.3425 16.8707 20.6675 17.875 19.8175 18.725C18.9675 19.575 17.9635 20.25 16.8055 20.75C15.6468 21.25 14.4092 21.5 13.0925 21.5C12.3425 21.5 11.6132 21.4127 10.9045 21.238C10.1965 21.0627 9.50917 20.8167 8.8425 20.5L2.8175 22.275ZM5.0425 20.05L8.24251 19.1C8.49251 19.0333 8.73017 19.004 8.9555 19.012C9.18017 19.0207 9.40917 19.0833 9.64251 19.2C10.1758 19.4667 10.7342 19.6667 11.3175 19.8C11.9008 19.9333 12.4925 20 13.0925 20C15.3258 20 17.2175 19.225 18.7675 17.675C20.3175 16.125 21.0925 14.2333 21.0925 12C21.0925 9.76667 20.3175 7.875 18.7675 6.325C17.2175 4.775 15.3258 4 13.0925 4C10.8592 4 8.9675 4.775 7.4175 6.325C5.8675 7.875 5.0925 9.76667 5.0925 12C5.0925 12.6 5.15917 13.1917 5.2925 13.775C5.42584 14.3583 5.62584 14.9167 5.89251 15.45C6.00917 15.6667 6.07184 15.8957 6.0805 16.137C6.0885 16.379 6.05917 16.6167 5.99251 16.85L5.0425 20.05Z" fill="white"/>
</svg>
