<svg width="40" height="40" viewBox="0 0 40 40" fill="none" xmlns="http://www.w3.org/2000/svg">
<rect width="40" height="40" rx="8" fill="#FEF5E5"/>
<path d="M23.2729 26.728C21.9423 26.7282 20.6414 26.3338 19.5349 25.5947C18.4284 24.8555 17.5659 23.8049 17.0565 22.5756C16.5471 21.3463 16.4136 19.9935 16.673 18.6884C16.9324 17.3832 17.573 16.1843 18.5138 15.2433C19.4546 14.3022 20.6533 13.6612 21.9584 13.4014C23.2635 13.1417 24.6163 13.2747 25.8457 13.7837C27.0752 14.2928 28.1261 15.155 28.8655 16.2613C29.605 17.3676 29.9998 18.6683 29.9999 19.999V20C29.9981 21.7836 29.2888 23.4937 28.0277 24.755C26.7665 26.0163 25.0566 26.7259 23.2729 26.728Z" fill="#FFD995"/>
<path d="M16.727 26.728C15.3964 26.728 14.0956 26.3334 12.9891 25.5941C11.8827 24.8548 11.0204 23.8041 10.5112 22.5747C10.0019 21.3453 9.8687 19.9925 10.1283 18.6874C10.3879 17.3823 11.0287 16.1835 11.9696 15.2426C12.9105 14.3016 14.1094 13.6609 15.4145 13.4013C16.7196 13.1417 18.0723 13.2749 19.3017 13.7841C20.5311 14.2933 21.5819 15.1557 22.3212 16.2621C23.0604 17.3685 23.455 18.6693 23.455 20C23.4532 21.7838 22.7437 23.494 21.4824 24.7553C20.2211 26.0167 18.5108 26.7261 16.727 26.728Z" fill="#FFAE1F"/>
</svg>
