<svg width="40" height="40" viewBox="0 0 40 40" fill="none" xmlns="http://www.w3.org/2000/svg">
<rect width="40" height="40" rx="8" fill="#FBF2EF"/>
<path d="M20 20V10C25.523 10 30 14.477 30 20H20Z" fill="#FFD4C9"/>
<path d="M20 20L25 28.66C26.5195 27.7816 27.7813 26.5191 28.6589 24.9991C29.5364 23.4791 29.9989 21.7551 30 20H20Z" fill="#FFAA94"/>
<path d="M24.9999 28.66L19.9999 20V10C14.4769 10.002 10.0009 14.48 10.0029 20.003C10.0049 25.526 14.4829 30.002 20.0069 30C21.7598 29.9993 23.4816 29.5379 24.9999 28.662L25.0029 28.657L24.9989 28.66H24.9999Z" fill="#FA896B"/>
</svg>
