<svg width="40" height="40" viewBox="0 0 40 40" fill="none" xmlns="http://www.w3.org/2000/svg">
<rect width="40" height="40" rx="8" fill="#EBF3FE"/>
<path d="M28.6499 17H10.6499C10.3847 17 10.1303 16.8946 9.9428 16.7071C9.75526 16.5196 9.6499 16.2652 9.6499 16V13C9.6499 12.57 9.9259 12.188 10.3339 12.052L19.3339 9.05199C19.5389 8.98299 19.7609 8.98299 19.9669 9.05199L28.9669 12.052C29.1658 12.1183 29.3389 12.2456 29.4614 12.4157C29.584 12.5859 29.65 12.7903 29.6499 13V16C29.6499 16.2652 29.5445 16.5196 29.357 16.7071C29.1695 16.8946 28.9151 17 28.6499 17ZM28.6499 30H10.6499C10.3847 30 10.1303 29.8946 9.9428 29.7071C9.75526 29.5196 9.6499 29.2652 9.6499 29V27C9.6507 26.2046 9.96702 25.442 10.5295 24.8796C11.0919 24.3171 11.8545 24.0008 12.6499 24H26.6499C27.4453 24.0008 28.2079 24.3171 28.7703 24.8796C29.3328 25.442 29.6491 26.2046 29.6499 27V29C29.6499 29.2652 29.5445 29.5196 29.357 29.7071C29.1695 29.8946 28.9151 30 28.6499 30Z" fill="#539BFF"/>
<path d="M12 17V24.076C12.21 24.029 12.426 24 12.65 24H26.65C26.77 24 26.884 24.022 27 24.036V17H12Z" fill="#D0E4FF"/>
<path d="M16 24V17H12V24.076C12.21 24.029 12.426 24 12.65 24H16ZM23 17V24H26.65C26.77 24 26.884 24.022 27 24.036V17H23Z" fill="#9FC7FF"/>
</svg>
