<svg width="11" height="18" viewBox="0 0 11 18" fill="none" xmlns="http://www.w3.org/2000/svg">
    <path d="M10.0256 17.4902C9.89813 17.4907 9.77174 17.4725 9.65371 17.4366C9.53567 17.4008 9.42832 17.3478 9.3378 17.281L1.42304 11.3868C0.971957 11.0518 0.614074 10.6538 0.369884 10.2155C0.125695 9.77725 0 9.30744 0 8.83297C0 8.3585 0.125695 7.8887 0.369884 7.45047C0.614074 7.01223 0.971957 6.61417 1.42304 6.27911L9.3378 0.384989C9.42813 0.317723 9.53535 0.264366 9.65338 0.227962C9.77139 0.191558 9.89788 0.172821 10.0256 0.172821C10.1534 0.172821 10.2799 0.191558 10.3979 0.227962C10.5159 0.264366 10.6231 0.317723 10.7134 0.384989C10.8038 0.452254 10.8754 0.532111 10.9243 0.619996C10.9732 0.707883 10.9983 0.802077 10.9983 0.897209C10.9983 0.99233 10.9732 1.08653 10.9243 1.17441C10.8754 1.26231 10.8038 1.34216 10.7134 1.40942L2.79868 7.30353C2.25444 7.70934 1.94873 8.25943 1.94873 8.83297C1.94873 9.40651 2.25444 9.9566 2.79868 10.3624L10.7134 16.2565C10.8042 16.3236 10.8763 16.4033 10.9255 16.4913C10.9747 16.5792 11 16.6735 11 16.7688C11 16.864 10.9747 16.9583 10.9255 17.0461C10.8763 17.1341 10.8042 17.2139 10.7134 17.281C10.6229 17.3478 10.5156 17.4008 10.3975 17.4366C10.2795 17.4725 10.1531 17.4907 10.0256 17.4902Z" fill="#97ABE0"/>
</svg>
