<svg width="17" height="17" viewBox="0 0 17 17" fill="none" xmlns="http://www.w3.org/2000/svg">
    <path d="M8.30618 13.652C8.36942 13.7459 8.47516 13.802 8.58804 13.802C8.70126 13.802 8.807 13.7455 8.8699 13.652L12.0781 8.8859C12.4617 8.27424 12.6646 7.5718 12.6646 6.85406C12.6646 4.68622 10.8344 2.9223 8.58464 2.9223C6.33486 2.9223 4.50464 4.68622 4.50464 6.85406C4.50464 7.57282 4.7083 8.27662 5.0993 8.89814L8.30618 13.652ZM8.58498 3.60196C10.4597 3.60196 11.985 5.0609 11.985 6.85372C11.985 7.44328 11.818 8.02094 11.5083 8.51496L8.5877 12.8534L5.66914 8.52652C5.35226 8.02264 5.18498 7.4443 5.18498 6.85372C5.18498 5.0609 6.71022 3.60196 8.58498 3.60196Z" fill="black"/>
    <path d="M8.58497 8.70944C9.65087 8.70944 10.5182 7.87066 10.5182 6.83944C10.5182 5.80822 9.65121 4.96944 8.58497 4.96944C7.51873 4.96944 6.65173 5.80822 6.65173 6.83944C6.65173 7.87066 7.51907 8.70944 8.58497 8.70944ZM8.58497 5.64944C9.27585 5.64944 9.83821 6.18324 9.83821 6.83944C9.83821 7.49564 9.27619 8.02944 8.58497 8.02944C7.89375 8.02944 7.33173 7.49564 7.33173 6.83944C7.33173 6.18324 7.89409 5.64944 8.58497 5.64944Z" fill="black"/>
</svg>
