<svg width="40" height="40" viewBox="0 0 40 40" fill="none" xmlns="http://www.w3.org/2000/svg">
<rect width="40" height="40" rx="8" fill="#E6FFFA"/>
<path d="M18 14V13H22V14H24V13C23.9995 12.4697 23.7886 11.9613 23.4136 11.5864C23.0387 11.2114 22.5303 11.0005 22 11H18C17.4697 11.0005 16.9613 11.2114 16.5864 11.5864C16.2114 11.9613 16.0005 12.4697 16 13V14H18Z" fill="#13DEB9"/>
<path d="M17 23C16.7348 23 16.4804 22.8946 16.2929 22.7071C16.1054 22.5196 16 22.2652 16 22V20C16 19.7348 16.1054 19.4804 16.2929 19.2929C16.4804 19.1054 16.7348 19 17 19C17.2652 19 17.5196 19.1054 17.7071 19.2929C17.8946 19.4804 18 19.7348 18 20V22C18 22.2652 17.8946 22.5196 17.7071 22.7071C17.5196 22.8946 17.2652 23 17 23ZM23 23C22.7348 23 22.4804 22.8946 22.2929 22.7071C22.1054 22.5196 22 22.2652 22 22V20C22 19.7348 22.1054 19.4804 22.2929 19.2929C22.4804 19.1054 22.7348 19 23 19C23.2652 19 23.5196 19.1054 23.7071 19.2929C23.8946 19.4804 24 19.7348 24 20V22C24 22.2652 23.8946 22.5196 23.7071 22.7071C23.5196 22.8946 23.2652 23 23 23Z" fill="#B3FFEE"/>
<path d="M28 14H12C11.4696 14 10.9609 14.2107 10.5858 14.5858C10.2107 14.9609 10 15.4696 10 16V19C10 19.5304 10.2107 20.0391 10.5858 20.4142C10.9609 20.7893 11.4696 21 12 21H16V20C16 19.7348 16.1054 19.4804 16.2929 19.2929C16.4804 19.1054 16.7348 19 17 19C17.2652 19 17.5196 19.1054 17.7071 19.2929C17.8946 19.4804 18 19.7348 18 20V21H22V20C22 19.7348 22.1054 19.4804 22.2929 19.2929C22.4804 19.1054 22.7348 19 23 19C23.2652 19 23.5196 19.1054 23.7071 19.2929C23.8946 19.4804 24 19.7348 24 20V21H28C28.5304 21 29.0391 20.7893 29.4142 20.4142C29.7893 20.0391 30 19.5304 30 19V16C30 15.4696 29.7893 14.9609 29.4142 14.5858C29.0391 14.2107 28.5304 14 28 14Z" fill="#54EBC9"/>
<path d="M28 21H24V22C24 22.2652 23.8946 22.5196 23.7071 22.7071C23.5196 22.8946 23.2652 23 23 23C22.7348 23 22.4804 22.8946 22.2929 22.7071C22.1054 22.5196 22 22.2652 22 22V21H18V22C18 22.2652 17.8946 22.5196 17.7071 22.7071C17.5196 22.8946 17.2652 23 17 23C16.7348 23 16.4804 22.8946 16.2929 22.7071C16.1054 22.5196 16 22.2652 16 22V21H12C11.4696 21 10.9609 20.7893 10.5858 20.4142C10.2107 20.0391 10 19.5304 10 19V27C10 27.5304 10.2107 28.0391 10.5858 28.4142C10.9609 28.7893 11.4696 29 12 29H28C28.5304 29 29.0391 28.7893 29.4142 28.4142C29.7893 28.0391 30 27.5304 30 27V19C30 19.5304 29.7893 20.0391 29.4142 20.4142C29.0391 20.7893 28.5304 21 28 21Z" fill="#13DEB9"/>
</svg>
