<svg width="11" height="18" viewBox="0 0 11 18" fill="none" xmlns="http://www.w3.org/2000/svg">
    <path d="M0.974368 17.4902C0.846884 17.4907 0.72049 17.4725 0.602466 17.4366C0.484428 17.4008 0.37707 17.3478 0.286554 17.281C0.195762 17.2139 0.123687 17.1341 0.074498 17.0461C0.0253238 16.9583 0 16.864 0 16.7688C0 16.6735 0.0253238 16.5792 0.074498 16.4913C0.123687 16.4033 0.195762 16.3236 0.286554 16.2565L8.20132 10.3624C8.74556 9.9566 9.05127 9.40651 9.05127 8.83297C9.05127 8.25943 8.74556 7.70934 8.20132 7.30353L0.286554 1.40942C0.104142 1.27358 0.00165216 1.08932 0.00165216 0.897209C0.00165216 0.705088 0.104142 0.520838 0.286554 0.384989C0.468981 0.249141 0.716393 0.172821 0.974368 0.172821C1.23236 0.172821 1.47977 0.249141 1.6622 0.384989L9.57696 6.27911C10.028 6.61417 10.3859 7.01223 10.6301 7.45047C10.8743 7.8887 11 8.3585 11 8.83297C11 9.30744 10.8743 9.77725 10.6301 10.2155C10.3859 10.6538 10.028 11.0518 9.57696 11.3868L1.6622 17.281C1.57168 17.3478 1.46432 17.4008 1.34628 17.4366C1.22826 17.4725 1.10187 17.4907 0.974368 17.4902Z" fill="#97ABE0"/>
</svg>
