<svg width="32" height="32" viewBox="0 0 32 32" fill="none" xmlns="http://www.w3.org/2000/svg">
<path fill-rule="evenodd" clip-rule="evenodd" d="M20.4133 28.04C20.28 28.9467 19.4533 29.6667 18.4667 29.6667H13.5333C12.5467 29.6667 11.72 28.9467 11.6 27.9733L11.24 25.4533C10.88 25.2667 10.5333 25.0667 10.1867 24.84L7.78665 25.8C6.85332 26.1467 5.82665 25.76 5.37332 24.9333L2.93332 20.7067C2.46665 19.8267 2.66665 18.7867 3.41332 18.2L5.45332 16.6133C5.43999 16.4133 5.42665 16.2133 5.42665 16C5.42665 15.8 5.43999 15.5867 5.45332 15.3867L3.42665 13.8C2.63999 13.2 2.43999 12.12 2.93332 11.2933L5.39999 7.04001C5.85332 6.21335 6.87999 5.84001 7.78665 6.20001L10.2 7.17335C10.5467 6.94668 10.8933 6.74668 11.24 6.56001L11.6 4.01335C11.72 3.08001 12.5467 2.34668 13.52 2.34668H18.4533C19.44 2.34668 20.2667 3.06668 20.3867 4.04001L20.7467 6.56001C21.1067 6.74668 21.4533 6.94668 21.8 7.17335L24.2 6.21335C25.1467 5.86668 26.1733 6.25335 26.6267 7.08001L29.08 11.32C29.56 12.2 29.3467 13.24 28.6 13.8267L26.5733 15.4133C26.5867 15.6133 26.6 15.8133 26.6 16.0267C26.6 16.24 26.5867 16.44 26.5733 16.64L28.6 18.2267C29.3467 18.8267 29.56 19.8667 29.0933 20.7067L26.6133 25C26.16 25.8267 25.1333 26.2 24.2133 25.84L21.8133 24.88C21.4667 25.1067 21.12 25.3067 20.7733 25.4933L20.4133 28.04ZM14.16 27H17.84L18.3333 23.6L19.04 23.3067C19.6267 23.0667 20.2133 22.72 20.8267 22.2667L21.4267 21.8133L24.6 23.0933L26.44 19.8933L23.7333 17.7867L23.8267 17.04L23.8308 17.0041C23.8694 16.6703 23.9067 16.3476 23.9067 16C23.9067 15.64 23.8667 15.2933 23.8267 14.96L23.7333 14.2133L26.44 12.1067L24.5867 8.90668L21.4 10.1867L20.8 9.72001C20.24 9.29335 19.64 8.94668 19.0267 8.69335L18.3333 8.40001L17.84 5.00001H14.16L13.6667 8.40001L12.96 8.68001C12.3733 8.93335 11.7867 9.26668 11.1733 9.73335L10.5733 10.1733L7.39999 8.90668L5.54665 12.0933L8.25332 14.2L8.15999 14.9467C8.11999 15.2933 8.07999 15.6533 8.07999 16C8.07999 16.3467 8.10665 16.7067 8.15999 17.04L8.25332 17.7867L5.54665 19.8933L7.38665 23.0933L10.5733 21.8133L11.1733 22.28C11.7467 22.72 12.32 23.0533 12.9467 23.3067L13.6533 23.6L14.16 27ZM20.6667 16C20.6667 18.5773 18.5773 20.6667 16 20.6667C13.4227 20.6667 11.3333 18.5773 11.3333 16C11.3333 13.4227 13.4227 11.3333 16 11.3333C18.5773 11.3333 20.6667 13.4227 20.6667 16Z" fill="#605DC7"/>
</svg>
