<svg width="25" height="19" viewBox="0 0 25 19" fill="none" xmlns="http://www.w3.org/2000/svg">
<path d="M17.625 10.7261C19.1205 11.7413 20.1685 13.1167 20.1685 14.9507V18.2255H24.535V14.9507C24.535 12.5709 20.6379 11.1627 17.625 10.7261Z" fill="#F4F4F9"/>
<path d="M15.802 9.49253C18.2145 9.49253 20.1685 7.53852 20.1685 5.12602C20.1685 2.71353 18.2145 0.759521 15.802 0.759521C15.2889 0.759521 14.8086 0.868684 14.3501 1.02151C15.2561 2.14589 15.802 3.57592 15.802 5.12602C15.802 6.67613 15.2561 8.10616 14.3501 9.23054C14.8086 9.38336 15.2889 9.49253 15.802 9.49253Z" fill="#F4F4F9"/>
<path d="M9.25176 9.49253C11.6642 9.49253 13.6183 7.53852 13.6183 5.12602C13.6183 2.71353 11.6642 0.759521 9.25176 0.759521C6.83926 0.759521 4.88525 2.71353 4.88525 5.12602C4.88525 7.53852 6.83926 9.49253 9.25176 9.49253ZM9.25176 2.94277C10.4525 2.94277 11.435 3.92524 11.435 5.12602C11.435 6.32681 10.4525 7.30927 9.25176 7.30927C8.05097 7.30927 7.06851 6.32681 7.06851 5.12602C7.06851 3.92524 8.05097 2.94277 9.25176 2.94277Z" fill="#F4F4F9"/>
<path d="M9.25205 10.5847C6.33741 10.5847 0.519043 12.0475 0.519043 14.9512V18.2261H17.9851V14.9512C17.9851 12.0475 12.1667 10.5847 9.25205 10.5847ZM15.8018 16.0428H2.70229V14.9621C2.92062 14.1762 6.30466 12.768 9.25205 12.768C12.1994 12.768 15.5835 14.1762 15.8018 14.9512V16.0428Z" fill="#F4F4F9"/>
</svg>
