<svg width="40" height="40" viewBox="0 0 40 40" fill="none" xmlns="http://www.w3.org/2000/svg">
<rect width="40" height="40" rx="8" fill="#ECF2FF"/>
<path d="M16.882 27.94C16.8049 28.4257 16.3861 28.7833 15.8943 28.7833H12.0626C11.2158 28.7851 10.528 28.1001 10.5261 27.2534C10.5259 27.1679 10.5329 27.0825 10.547 26.9981L13.1368 10.5918C13.2841 9.67638 14.0729 9.00247 15.0001 9H21.214C23.7745 9 25.6222 9.62012 26.7061 10.8428C27.7528 12.0486 28.1548 13.6847 27.7862 15.2383C27.7647 15.373 27.7432 15.5088 27.711 15.6563C26.8878 19.8741 24.0558 22.1133 19.5255 22.1133H17.8067L16.882 27.94ZM12.5226 27.3116L12.5206 27.3184L12.5226 27.3116ZM15.1134 10.8966L15.1124 10.8986L15.1134 10.8966Z" fill="#B2B1FF"/>
<path d="M28.4365 15.1045C28.2704 14.9185 28.0878 14.7487 27.8915 14.5965C27.8696 14.8111 27.8366 15.0255 27.7861 15.2383C27.7647 15.373 27.7431 15.5088 27.7109 15.6562C26.8877 19.874 24.0557 22.1133 19.5254 22.1133H17.8066L16.8819 27.94C16.8048 28.4257 16.386 28.7833 15.8942 28.7833H14.7266L14.6445 29.3037C14.6326 29.3794 14.6265 29.4559 14.6265 29.5326C14.6262 30.3427 15.2827 30.9997 16.0928 31H19.3272C20.1928 31.0073 20.9353 30.3841 21.0782 29.5303L21.7188 25.499L21.7296 25.4444H22.0284C26.0606 25.4444 28.5792 23.4512 29.3135 19.6816C29.7679 18.1034 29.4421 16.4031 28.4365 15.1045Z" fill="#615DFF"/>
</svg>
