<svg width="34" height="26" viewBox="0 0 34 26" fill="none" xmlns="http://www.w3.org/2000/svg">
<path d="M20.1369 26C22.8983 26 25.1842 23.7425 24.6732 21.0288C24.3528 19.3274 23.8679 17.6594 23.2235 16.0502C21.9602 12.8958 20.1087 10.0295 17.7745 7.61522C15.4403 5.2009 12.6692 3.28575 9.61948 1.97913C8.11383 1.33406 6.55481 0.843538 4.96489 0.512196C2.26154 -0.0511822 0 2.23858 0 5V21C0 23.7614 2.23858 26 5 26H20.1369Z" fill="#5D87FF"/>
<g style="mix-blend-mode:multiply">
<path d="M13.7012 26C10.9398 26 8.65389 23.7425 9.16496 21.0288C9.48538 19.3274 9.97025 17.6594 10.6146 16.0502C11.8779 12.8958 13.7295 10.0295 16.0636 7.61522C18.3978 5.2009 21.1689 3.28575 24.2186 1.97913C25.7243 1.33406 27.2833 0.843538 28.8732 0.512196C31.5766 -0.0511822 33.8381 2.23858 33.8381 5V21C33.8381 23.7614 31.5996 26 28.8381 26H13.7012Z" fill="#49BEFF"/>
</g>
</svg>
